<svg xmlns="http://www.w3.org/2000/svg" viewBox="0 0 1859.7 385.46"><defs><style>.cls-1{fill:#000005}.cls-2{fill:#000206}.cls-3{fill:#000409}.cls-4{fill:#00060b}.cls-5{fill:#000008}.cls-6{fill:#000006}.cls-7{fill:#050a0f}.cls-8{fill:#070c10}.cls-9{fill:#040a0e}.cls-10{fill:#131013}.cls-11{fill:#040e16}.cls-12{fill:#0a101a}.cls-13{fill:#050d19}.cls-14{fill:#080e17}.cls-15{fill:#0b1521}.cls-16{fill:#070c13}.cls-17{fill:#00040a}.cls-18{fill:#040a11}.cls-19{fill:#080a11}.cls-20{fill:#0f1e2d}.cls-21{fill:#0c1825}.cls-22{fill:#101116}.cls-23{fill:#0d1d28}.cls-24{fill:#0e1c2b}.cls-25{fill:#263745}.cls-26{fill:#1a2b39}.cls-27{fill:#152634}.cls-28{fill:#060c10}.cls-29{fill:#03080e}.cls-30{fill:#151115}.cls-31{fill:#080e16}.cls-32{fill:#0e1c2a}.cls-33{fill:#2c3d4b}.cls-34{fill:#415261}.cls-35{fill:#253241}.cls-36{fill:#4b5d6c}.cls-37{fill:#243142}.cls-38{fill:#0d101a}.cls-39{fill:#0f1c2c}.cls-40{fill:#161413}.cls-41{fill:#1b1112}.cls-42{fill:#151014}.cls-43{fill:#191314}.cls-44{fill:#181620}.cls-45{fill:#211f25}.cls-46{fill:#131114}.cls-47{fill:#192132}.cls-48{fill:#0e1118}.cls-49{fill:#152436}.cls-50{fill:#0b192a}.cls-51{fill:#18232f}.cls-52{fill:#374657}.cls-53{fill:#445664}.cls-54{fill:#4e6071}.cls-55{fill:#415361}.cls-56{fill:#4b5c68}.cls-57{fill:#5d707c}.cls-58{fill:#647986}.cls-59,.cls-60{fill:#fff}.cls-60{font-size:35px;font-family:KelsonSans-Regular,Kelson Sans;letter-spacing:1.1em}.cls-61{letter-spacing:1.07em}.cls-62{letter-spacing:1.05em}.cls-63{letter-spacing:1.04em}</style></defs><title>obj23-blanc</title><g id="Calque_1" data-name="Calque 1"><path d="M225.01 201.29l-80.96-18.42 26.23 84.86 54.73-66.44z"/><path class="cls-1" d="M253.21 275.35l-28.2-74.06-54.73 66.44 82.93 7.62z"/><path class="cls-2" d="M321.9 263.19l-30.11-47.99-38.58 60.15 68.69-12.16z"/><path class="cls-3" d="M275.99 328.98l-76.14 3.21 53.36-56.84 22.78 53.63z"/><path class="cls-2" d="M321.9 263.19l-45.91 65.79-22.78-53.63 68.69-12.16zM170.28 267.73l29.57 64.46 53.36-56.84-82.93-7.62z"/><path class="cls-3" d="M122.11 310.46l77.74 21.73-29.57-64.46-48.17 42.73z"/><path class="cls-2" d="M92.9 242.15l29.21 68.31 48.17-42.73-77.38-25.58z"/><path class="cls-1" d="M144.05 182.87L92.9 242.15l77.38 25.58-26.23-84.86z"/><path class="cls-2" d="M80.7 168.59l12.2 73.56 51.15-59.28-63.35-14.28z"/><path class="cls-4" d="M281.92 142.83l9.87 72.37-66.78-13.91 56.91-58.46z"/><path class="cls-5" d="M253.21 275.35l-28.2-74.06 66.78 13.91-38.58 60.15z"/><path class="cls-3" d="M202.51 118.03l22.5 83.26 56.91-58.46-79.41-24.8z"/><path class="cls-6" d="M144.05 182.87l58.46-64.84 22.5 83.26-80.96-18.42z"/><path class="cls-1" d="M118.69 106.93L80.7 168.59l63.35 14.28-25.36-75.94z"/><path class="cls-2" d="M202.51 118.03l-83.82-11.1 25.36 75.94 58.46-64.84z"/><path class="cls-3" d="M35.94 200.69l56.96 41.46-12.2-73.56-44.76 32.1zM51.82 280.18l70.29 30.28-29.21-68.31-41.08 38.03z"/><path class="cls-7" d="M154.37 356.21l-32.26-45.75 77.74 21.73-45.48 24.02z"/><path class="cls-8" d="M220.47 367.15l-66.1-10.94 45.48-24.02 20.62 34.96z"/><path class="cls-9" d="M275.99 328.98l-55.52 38.17-20.62-34.96 76.14-3.21z"/><path class="cls-10" d="M94.82 342.96l59.55 13.25-32.26-45.75-27.29 32.5z"/><path class="cls-8" d="M51.82 280.18l43 62.78 27.29-32.5-70.29-30.28z"/><path class="cls-11" d="M339.89 183.89l-48.1 31.31-9.87-72.37 57.97 41.06z"/><path class="cls-12" d="M367.63 231.17l-45.73 32.02 17.99-79.3 27.74 47.28z"/><path class="cls-3" d="M333.57 300.24l-57.58 28.74 45.91-65.79 11.67 37.05z"/><path class="cls-13" d="M175.97 52.39l26.54 65.64 53.72-50.18-80.26-15.46z"/><path class="cls-14" d="M281.92 142.83l-25.69-74.98-53.72 50.18 79.41 24.8z"/><path class="cls-15" d="M324.5 100.07l-42.58 42.76-25.69-74.98 68.27 32.22zM339.89 183.89l-15.39-83.82-42.58 42.76 57.97 41.06z"/><path class="cls-16" d="M118.69 106.93l57.28-54.54 26.54 65.64-83.82-11.1z"/><path class="cls-2" d="M53.17 118.89l27.53 49.7 37.99-61.66-65.52 11.96z"/><path class="cls-17" d="M51.82 280.18l-15.88-79.49 56.96 41.46-41.08 38.03z"/><path class="cls-1" d="M53.17 118.89l-17.23 81.8 44.76-32.1-27.53-49.7z"/><path class="cls-18" d="M98.3 51.09l-45.13 67.8 65.52-11.96L98.3 51.09z"/><path class="cls-12" d="M42.7 74.17l10.47 44.72 45.13-67.8-55.6 23.08z"/><path class="cls-4" d="M6.51 150.59l29.43 50.1 17.23-81.8-46.66 31.7z"/><path class="cls-19" d="M11.53 231.57l40.29 48.61-15.88-79.49-24.41 30.88z"/><path class="cls-20" d="M256.44 68.21L222.6 15.83l-46.63 36.56 80.47 15.82z"/><path class="cls-21" d="M98.3 51.09l51.33-40.14 26.34 41.44-77.67-1.3z"/><path class="cls-22" d="M44.02 308.64l7.8-28.46 43 62.78-50.8-34.32z"/><path class="cls-23" d="M324.5 100.07l-23.17-46.86-45.1 14.64 68.27 32.22z"/><path class="cls-24" d="M370.41 148.04l-30.52 35.85-15.39-83.82 45.91 47.97z"/><path class="cls-14" d="M118.69 106.93L98.3 51.09l77.67 1.3-57.28 54.54z"/><path class="cls-25" d="M324.5 100.07l17.22-24.02-40.39-22.84 23.17 46.86z"/><path class="cls-26" d="M222.6 15.83l33.63 52.02 45.1-14.64-78.73-37.38z"/><path class="cls-27" d="M175.97 52.39l46.63-36.56-72.97-4.88 26.34 41.44z"/><path class="cls-28" d="M42.7 74.17L6.51 150.59l46.66-31.7L42.7 74.17z"/><path class="cls-29" d="M11.53 231.57l-5.02-80.98 29.43 50.1-24.41 30.88z"/><path class="cls-30" d="M44.02 308.64l-32.49-77.07 40.29 48.61-7.8 28.46z"/><path class="cls-8" d="M275.99 328.98l8.25 22.81-63.77 15.36 55.52-38.17z"/><path class="cls-29" d="M333.57 300.24l-49.33 51.55-8.25-22.81 57.58-28.74z"/><path class="cls-31" d="M367.63 231.17l-34.06 69.07-11.67-37.05 45.73-32.02z"/><path class="cls-32" d="M370.41 148.04l-2.78 83.13-27.74-47.28 30.52-35.85z"/><path class="cls-33" d="M341.72 76.05l28.69 71.99-45.91-47.97 17.22-24.02z"/><path class="cls-34" d="M368.46 122.71l1.95 25.33 9.29 39.64-11.24-64.97z"/><path class="cls-35" d="M368.04 252.58l-.41-21.41 12.07-43.49-11.66 64.9z"/><path class="cls-36" d="M341.72 76.05l26.74 46.66 1.95 25.33-28.69-71.99z"/><path class="cls-37" d="M367.63 231.17l12.07-43.49-9.29-39.64-2.78 83.13z"/><path class="cls-38" d="M368.04 252.58l-34.47 47.66 34.06-69.07.41 21.41z"/><path class="cls-39" d="M334.89 309.57l-1.32-9.33 34.47-47.66-33.15 56.99z"/><path class="cls-40" d="M284.24 351.79l50.65-42.22-1.32-9.33-49.33 51.55z"/><path class="cls-30" d="M222.21 374.14l-1.74-6.99 63.77-15.36-62.03 22.35z"/><path class="cls-41" d="M156.28 373.93l64.19-6.78 1.74 6.99-65.93-.21z"/><path class="cls-42" d="M154.37 356.21l1.91 17.72 64.19-6.78-66.1-10.94z"/><path class="cls-41" d="M94.82 342.96l61.46 30.97-1.91-17.72-59.55-13.25z"/><path class="cls-42" d="M94.39 351.18l.43-8.22 61.46 30.97-61.89-22.75z"/><path class="cls-43" d="M94.82 342.96l-.43 8.22-50.37-42.54 50.8 34.32z"/><path class="cls-44" d="M11.53 231.57l-.29 19.86 32.78 57.21-32.49-77.07z"/><path class="cls-45" d="M0 186.46l11.53 45.11-.29 19.86L0 186.46z"/><path class="cls-46" d="M6.51 150.59l5.02 80.98L0 186.46l6.51-35.87z"/><path class="cls-47" d="M44.81 64.57l-2.11 9.6-31.04 47.39 33.15-56.99z"/><path class="cls-48" d="M6.51 150.59L42.7 74.17l-31.04 47.39-5.15 29.03z"/><path class="cls-49" d="M44.81 64.57l-2.11 9.6 52.76-51.83-50.65 42.23z"/><path class="cls-50" d="M98.3 51.09l-2.84-28.75L42.7 74.17l55.6-23.08z"/><path class="cls-51" d="M149.63 10.95L95.46 22.34l2.84 28.75 51.33-40.14z"/><path class="cls-52" d="M157.49 0l-7.86 10.95-54.17 11.39L157.49 0z"/><path class="cls-53" d="M222.6 15.83l.82-15.62-73.79 10.74 72.97 4.88z"/><path class="cls-54" d="M157.49 0l-7.86 10.95L223.42.21 157.49 0z"/><path class="cls-55" d="M335.68 65.51l-34.35-12.3 40.39 22.84-6.04-10.54z"/><path class="cls-56" d="M222.6 15.83l78.73 37.38-16.02-30.25-62.71-7.13z"/><path class="cls-57" d="M223.42.21l-.82 15.62 62.71 7.13L223.42.21z"/><path class="cls-58" d="M335.68 65.51l-34.35-12.3-16.02-30.25 50.37 42.55z"/><path class="cls-16" d="M339.89 183.89l-48.1 31.31 30.11 47.99 17.99-79.3z"/><path d="M225.01 201.29l-80.96-18.42 26.23 84.86 54.73-66.44z"/><path class="cls-1" d="M253.21 275.35l-28.2-74.06-54.73 66.44 82.93 7.62z"/><path class="cls-2" d="M321.9 263.19l-30.11-47.99-38.58 60.15 68.69-12.16z"/><path class="cls-3" d="M275.99 328.98l-76.14 3.21 53.36-56.84 22.78 53.63z"/><path class="cls-2" d="M321.9 263.19l-45.91 65.79-22.78-53.63 68.69-12.16zM170.28 267.73l29.57 64.46 53.36-56.84-82.93-7.62z"/><path class="cls-3" d="M122.11 310.46l77.74 21.73-29.57-64.46-48.17 42.73z"/><path class="cls-2" d="M92.9 242.15l29.21 68.31 48.17-42.73-77.38-25.58z"/><path class="cls-1" d="M144.05 182.87L92.9 242.15l77.38 25.58-26.23-84.86z"/><path class="cls-2" d="M80.7 168.59l12.2 73.56 51.15-59.28-63.35-14.28z"/><path class="cls-4" d="M281.92 142.83l9.87 72.37-66.78-13.91 56.91-58.46z"/><path class="cls-5" d="M253.21 275.35l-28.2-74.06 66.78 13.91-38.58 60.15z"/><path class="cls-3" d="M202.51 118.03l22.5 83.26 56.91-58.46-79.41-24.8z"/><path class="cls-6" d="M144.05 182.87l58.46-64.84 22.5 83.26-80.96-18.42z"/><path class="cls-1" d="M118.69 106.93L80.7 168.59l63.35 14.28-25.36-75.94z"/><path class="cls-2" d="M202.51 118.03l-83.82-11.1 25.36 75.94 58.46-64.84z"/><path class="cls-3" d="M35.94 200.69l56.96 41.46-12.2-73.56-44.76 32.1zM51.82 280.18l70.29 30.28-29.21-68.31-41.08 38.03z"/><path class="cls-7" d="M154.37 356.21l-32.26-45.75 77.74 21.73-45.48 24.02z"/><path class="cls-8" d="M220.47 367.15l-66.1-10.94 45.48-24.02 20.62 34.96z"/><path class="cls-9" d="M275.99 328.98l-55.52 38.17-20.62-34.96 76.14-3.21z"/><path class="cls-10" d="M94.82 342.96l59.55 13.25-32.26-45.75-27.29 32.5z"/><path class="cls-8" d="M51.82 280.18l43 62.78 27.29-32.5-70.29-30.28z"/><path class="cls-11" d="M339.89 183.89l-48.1 31.31-9.87-72.37 57.97 41.06z"/><path class="cls-12" d="M367.63 231.17l-45.73 32.02 17.99-79.3 27.74 47.28z"/><path class="cls-3" d="M333.57 300.24l-57.58 28.74 45.91-65.79 11.67 37.05z"/><path class="cls-13" d="M175.97 52.39l26.54 65.64 53.72-50.18-80.26-15.46z"/><path class="cls-14" d="M281.92 142.83l-25.69-74.98-53.72 50.18 79.41 24.8z"/><path class="cls-15" d="M324.5 100.07l-42.58 42.76-25.69-74.98 68.27 32.22zM339.89 183.89l-15.39-83.82-42.58 42.76 57.97 41.06z"/><path class="cls-16" d="M118.69 106.93l57.28-54.54 26.54 65.64-83.82-11.1z"/><path class="cls-2" d="M53.17 118.89l27.53 49.7 37.99-61.66-65.52 11.96z"/><path class="cls-17" d="M51.82 280.18l-15.88-79.49 56.96 41.46-41.08 38.03z"/><path class="cls-1" d="M53.17 118.89l-17.23 81.8 44.76-32.1-27.53-49.7z"/><path class="cls-18" d="M98.3 51.09l-45.13 67.8 65.52-11.96L98.3 51.09z"/><path class="cls-12" d="M42.7 74.17l10.47 44.72 45.13-67.8-55.6 23.08z"/><path class="cls-4" d="M6.51 150.59l29.43 50.1 17.23-81.8-46.66 31.7z"/><path class="cls-19" d="M11.53 231.57l40.29 48.61-15.88-79.49-24.41 30.88z"/><path class="cls-20" d="M256.44 68.21L222.6 15.83l-46.63 36.56 80.47 15.82z"/><path class="cls-21" d="M98.3 51.09l51.33-40.14 26.34 41.44-77.67-1.3z"/><path class="cls-22" d="M44.02 308.64l7.8-28.46 43 62.78-50.8-34.32z"/><path class="cls-23" d="M324.5 100.07l-23.17-46.86-45.1 14.64 68.27 32.22z"/><path class="cls-24" d="M370.41 148.04l-30.52 35.85-15.39-83.82 45.91 47.97z"/><path class="cls-14" d="M118.69 106.93L98.3 51.09l77.67 1.3-57.28 54.54z"/><path class="cls-25" d="M324.5 100.07l17.22-24.02-40.39-22.84 23.17 46.86z"/><path class="cls-26" d="M222.6 15.83l33.63 52.02 45.1-14.64-78.73-37.38z"/><path class="cls-27" d="M175.97 52.39l46.63-36.56-72.97-4.88 26.34 41.44z"/><path class="cls-28" d="M42.7 74.17L6.51 150.59l46.66-31.7L42.7 74.17z"/><path class="cls-29" d="M11.53 231.57l-5.02-80.98 29.43 50.1-24.41 30.88z"/><path class="cls-30" d="M44.02 308.64l-32.49-77.07 40.29 48.61-7.8 28.46z"/><path class="cls-8" d="M275.99 328.98l8.25 22.81-63.77 15.36 55.52-38.17z"/><path class="cls-29" d="M333.57 300.24l-49.33 51.55-8.25-22.81 57.58-28.74z"/><path class="cls-31" d="M367.63 231.17l-34.06 69.07-11.67-37.05 45.73-32.02z"/><path class="cls-32" d="M370.41 148.04l-2.78 83.13-27.74-47.28 30.52-35.85z"/><path class="cls-33" d="M341.72 76.05l28.69 71.99-45.91-47.97 17.22-24.02z"/><path class="cls-34" d="M368.46 122.71l1.95 25.33 9.29 39.64-11.24-64.97z"/><path class="cls-35" d="M368.04 252.58l-.41-21.41 12.07-43.49-11.66 64.9z"/><path class="cls-36" d="M341.72 76.05l26.74 46.66 1.95 25.33-28.69-71.99z"/><path class="cls-37" d="M367.63 231.17l12.07-43.49-9.29-39.64-2.78 83.13z"/><path class="cls-38" d="M368.04 252.58l-34.47 47.66 34.06-69.07.41 21.41z"/><path class="cls-39" d="M334.89 309.57l-1.32-9.33 34.47-47.66-33.15 56.99z"/><path class="cls-40" d="M284.24 351.79l50.65-42.22-1.32-9.33-49.33 51.55z"/><path class="cls-30" d="M222.21 374.14l-1.74-6.99 63.77-15.36-62.03 22.35z"/><path class="cls-41" d="M156.28 373.93l64.19-6.78 1.74 6.99-65.93-.21z"/><path class="cls-42" d="M154.37 356.21l1.91 17.72 64.19-6.78-66.1-10.94z"/><path class="cls-41" d="M94.82 342.96l61.46 30.97-1.91-17.72-59.55-13.25z"/><path class="cls-42" d="M94.39 351.18l.43-8.22 61.46 30.97-61.89-22.75z"/><path class="cls-43" d="M94.82 342.96l-.43 8.22-50.37-42.54 50.8 34.32z"/><path class="cls-44" d="M11.53 231.57l-.29 19.86 32.78 57.21-32.49-77.07z"/><path class="cls-45" d="M0 186.46l11.53 45.11-.29 19.86L0 186.46z"/><path class="cls-46" d="M6.51 150.59l5.02 80.98L0 186.46l6.51-35.87z"/><path class="cls-47" d="M44.81 64.57l-2.11 9.6-31.04 47.39 33.15-56.99z"/><path class="cls-48" d="M6.51 150.59L42.7 74.17l-31.04 47.39-5.15 29.03z"/><path class="cls-49" d="M44.81 64.57l-2.11 9.6 52.76-51.83-50.65 42.23z"/><path class="cls-50" d="M98.3 51.09l-2.84-28.75L42.7 74.17l55.6-23.08z"/><path class="cls-51" d="M149.63 10.95L95.46 22.34l2.84 28.75 51.33-40.14z"/><path class="cls-52" d="M157.49 0l-7.86 10.95-54.17 11.39L157.49 0z"/><path class="cls-53" d="M222.6 15.83l.82-15.62-73.79 10.74 72.97 4.88z"/><path class="cls-54" d="M157.49 0l-7.86 10.95L223.42.21 157.49 0z"/><path class="cls-55" d="M335.68 65.51l-34.35-12.3 40.39 22.84-6.04-10.54z"/><path class="cls-56" d="M222.6 15.83l78.73 37.38-16.02-30.25-62.71-7.13z"/><path class="cls-57" d="M223.42.21l-.82 15.62 62.71 7.13L223.42.21z"/><path class="cls-58" d="M335.68 65.51l-34.35-12.3-16.02-30.25 50.37 42.55z"/><path class="cls-16" d="M339.89 183.89l-48.1 31.31 30.11 47.99 17.99-79.3z"/><path class="cls-59" d="M351.14 317.2h.06v-.4c-.02.14-.03.27-.06.4z" transform="translate(-224.66 -159.43)"/><path class="cls-59" d="M507.07 368a40.87 40.87 0 0 0-6.84-12.64 35.55 35.55 0 0 0-10.87-9.06 38.82 38.82 0 0 0-14.48-4.37 33.74 33.74 0 0 0 23.32-11.84 34.51 34.51 0 0 0 6.33-11.32 42.28 42.28 0 0 0 2.19-13.61 35.59 35.59 0 0 0-3.89-17.1 36.35 36.35 0 0 0-10.33-12.1 43.91 43.91 0 0 0-14.81-7.1 65.51 65.51 0 0 0-17.31-2.31q-23.74 0-37.27 13.35a42.09 42.09 0 0 0-10.08 16 37 37 0 0 0-1.7-4.58 40.81 40.81 0 0 0-9.68-13.4 41.76 41.76 0 0 0-14.47-8.52 53.34 53.34 0 0 0-17.75-3 51.07 51.07 0 0 0-20.7 3.9 40.58 40.58 0 0 0-14.93 11 47.44 47.44 0 0 0-9.06 17 74.79 74.79 0 0 0-3.08 22.1H326a74.69 74.69 0 0 1 2.46-19.4 44 44 0 0 1 7.64-15.78 36.57 36.57 0 0 1 13.52-10.65q8.27-3.91 19.82-3.89a48.21 48.21 0 0 1 16.33 2.74 37.93 37.93 0 0 1 13.06 7.76 36.27 36.27 0 0 1 8.58 12.1 37.34 37.34 0 0 1 3 13.42c0 .79.11 1.56.11 2.37a38.16 38.16 0 0 1-.75 7.27 38.69 38.69 0 0 1-3.08 9.38 66.28 66.28 0 0 1-10.15 15.12 118.16 118.16 0 0 1-14.39 13.71q-8.06 6.52-16.57 12.38t-16.89 12.29a117.66 117.66 0 0 0-15 13.59 67.47 67.47 0 0 0-10.81 15.34 36.29 36.29 0 0 0-3.94 17.52l82.11.11q12 0 16.46-5.31a18.56 18.56 0 0 0 3.1-5.34 49 49 0 0 0 15.95 9.53 65.5 65.5 0 0 0 22.75 3.84 55.84 55.84 0 0 0 19-3.24 49 49 0 0 0 16-9.23 45.86 45.86 0 0 0 11-14.36 42.06 42.06 0 0 0 4.16-18.84 46.07 46.07 0 0 0-2.4-14.83zm-5.81 32.12a40.5 40.5 0 0 1-10.15 13 46.73 46.73 0 0 1-14.6 8.26 51.1 51.1 0 0 1-17.22 2.91 61.48 61.48 0 0 1-21.12-3.51 43.35 43.35 0 0 1-16.1-10c-.11-.11-.21-.24-.32-.36a39.31 39.31 0 0 1-3.05-3.54 42.72 42.72 0 0 1-6.41-12 52 52 0 0 1-2.36-21.13h-4.36a56.77 56.77 0 0 0 2.69 23 45.29 45.29 0 0 0 9 15.25 9.52 9.52 0 0 1-2 4.66 12.69 12.69 0 0 1-5.23 3.59 27.08 27.08 0 0 1-9.8 1.4l-76.89-.11a34.45 34.45 0 0 1 5.14-14A76.84 76.84 0 0 1 339.11 394a133.66 133.66 0 0 1 14.61-12.72q8.17-6.2 16.68-12.07t16.46-12.5A108.47 108.47 0 0 0 401 342.53a71.36 71.36 0 0 0 10-15.89 42.24 42.24 0 0 0 3-9.44c0-.13 0-.27.06-.4a42.2 42.2 0 0 0 .76-7.7c0-.81-.07-1.57-.11-2.35a46.94 46.94 0 0 1 2.3-9A38.49 38.49 0 0 1 440.88 274a56.41 56.41 0 0 1 19.5-3.13 57.79 57.79 0 0 1 15.35 2.13 44.4 44.4 0 0 1 13.5 6.23 30.33 30.33 0 0 1 13.14 25.93 33.14 33.14 0 0 1-3.29 15 32.22 32.22 0 0 1-8.73 10.84 37.18 37.18 0 0 1-12.64 6.51 51.5 51.5 0 0 1-15 2.16h-4.79V344h4.79a54.63 54.63 0 0 1 16.88 2.53 38.26 38.26 0 0 1 13.34 7.47 34.73 34.73 0 0 1 8.92 12.1 40.25 40.25 0 0 1 3.24 16.77 37.88 37.88 0 0 1-3.84 17.21z" transform="translate(-224.66 -159.43)"/><circle class="cls-59" cx="225.4" cy="182.4" r="2.26"/><path class="cls-59" d="M2020 367.83a40.79 40.79 0 0 0-6.83-12.62 35.48 35.48 0 0 0-10.85-9 38.75 38.75 0 0 0-14.46-4.36 33.68 33.68 0 0 0 23.32-11.85 34.45 34.45 0 0 0 6.32-11.3 42.21 42.21 0 0 0 2.19-13.59 35.53 35.53 0 0 0-3.89-17.11 36.29 36.29 0 0 0-10.31-12 43.83 43.83 0 0 0-14.78-7.09 65.4 65.4 0 0 0-17.27-2.31q-23.7 0-37.2 13.32a42 42 0 0 0-10.06 15.94 36.93 36.93 0 0 0-1.7-4.57 40.74 40.74 0 0 0-9.66-13.38 41.68 41.68 0 0 0-14.44-8.5 53.24 53.24 0 0 0-17.72-3 51 51 0 0 0-20.66 3.89 40.51 40.51 0 0 0-14.9 11 47.35 47.35 0 0 0-9 16.95 74.66 74.66 0 0 0-3.07 22.06h4.34a74.56 74.56 0 0 1 2.42-19.24 43.87 43.87 0 0 1 7.63-15.75 36.51 36.51 0 0 1 13.5-10.63q8.26-3.9 19.79-3.88a48.12 48.12 0 0 1 16.3 2.74 37.87 37.87 0 0 1 13 7.74 36.21 36.21 0 0 1 8.56 12.08 37.28 37.28 0 0 1 3 13.39c0 .79.11 1.56.11 2.37a38.09 38.09 0 0 1-.75 7.26 38.62 38.62 0 0 1-3.08 9.37 66.16 66.16 0 0 1-10.13 15.1 118 118 0 0 1-14.37 13.68q-8.05 6.5-16.54 12.36T1862 379.11a117.45 117.45 0 0 0-15 13.57 67.36 67.36 0 0 0-10.85 15.32 36.22 36.22 0 0 0-3.93 17.49l82 .11q12 0 16.43-5.3a18.52 18.52 0 0 0 3.09-5.33 48.86 48.86 0 0 0 15.92 9.52 65.38 65.38 0 0 0 22.71 3.84 55.74 55.74 0 0 0 18.92-3.24 48.91 48.91 0 0 0 16-9.21 45.78 45.78 0 0 0 11-14.33 42 42 0 0 0 4.16-18.8 46 46 0 0 0-2.45-14.92zm-5.8 32.06a40.43 40.43 0 0 1-10.13 12.93 46.65 46.65 0 0 1-14.57 8.24 51 51 0 0 1-17.18 2.9 61.37 61.37 0 0 1-21.09-3.51 43.27 43.27 0 0 1-16.07-10c-.11-.11-.21-.24-.32-.36a39.24 39.24 0 0 1-3-3.53 42.64 42.64 0 0 1-6.4-12 51.86 51.86 0 0 1-2.36-21.09h-4.35a56.67 56.67 0 0 0 2.68 22.94 45.2 45.2 0 0 0 9 15.22 9.5 9.5 0 0 1-2 4.65 12.66 12.66 0 0 1-5.22 3.58 27 27 0 0 1-9.79 1.39l-76.75-.11a34.39 34.39 0 0 1 5.13-14 76.71 76.71 0 0 1 10.67-13.35 133.43 133.43 0 0 1 14.59-12.7q8.16-6.19 16.65-12t16.31-12.54a108.28 108.28 0 0 0 14.16-14.11 71.23 71.23 0 0 0 10-15.86 42.17 42.17 0 0 0 3-9.42c0-.13 0-.26.06-.4a42.13 42.13 0 0 0 .76-7.68c0-.8-.07-1.56-.11-2.35a46.86 46.86 0 0 1 2.29-9A38.42 38.42 0 0 1 1954 274a56.31 56.31 0 0 1 19.47-3.12 57.69 57.69 0 0 1 15.32 2.08 44.32 44.32 0 0 1 13.47 6.22 30.28 30.28 0 0 1 13.12 25.89 33.08 33.08 0 0 1-3.29 15 32.16 32.16 0 0 1-8.71 10.86 37.11 37.11 0 0 1-12.62 6.5 51.41 51.41 0 0 1-15 2.16h-4.79V344h4.79a54.53 54.53 0 0 1 16.85 2.53 38.19 38.19 0 0 1 13.36 7.41 34.67 34.67 0 0 1 8.9 12.08 40.18 40.18 0 0 1 3.23 16.74 37.81 37.81 0 0 1-3.87 17.13z" transform="translate(-224.66 -159.43)"/><circle class="cls-59" cx="1738.77" cy="182.43" r="2.31"/><path class="cls-59" d="M1077.2 335.54a84 84 0 0 1-4.13 26.33 64.27 64.27 0 0 1-12.12 21.85 57.85 57.85 0 0 1-19.95 14.91q-11.91 5.55-27.33 5.52t-27.22-5.6a59 59 0 0 1-19.88-15 63.19 63.19 0 0 1-12.16-21.89 86.35 86.35 0 0 1 .07-52.58 64.29 64.29 0 0 1 12.22-21.85 58.62 58.62 0 0 1 19.92-15q11.8-5.55 27.23-5.52t27.32 5.6a57.45 57.45 0 0 1 19.88 15.07 65.41 65.41 0 0 1 12.06 21.89 83.19 83.19 0 0 1 4.09 26.27zm-8.57 0a78.12 78.12 0 0 0-3.39-23.16 58 58 0 0 0-10.25-19.6 50.77 50.77 0 0 0-17.12-13.6q-10.28-5.12-24-5.14t-24 5.07a50.69 50.69 0 0 0-17.16 13.55 57.86 57.86 0 0 0-10.31 19.57 79.77 79.77 0 0 0-.06 46.29 58 58 0 0 0 10.25 19.61 50.69 50.69 0 0 0 17.12 13.6q10.27 5.12 24 5.14t24-5.07a50.77 50.77 0 0 0 17.16-13.55 58.1 58.1 0 0 0 10.31-19.58 78.08 78.08 0 0 0 3.45-23.14zM1216.6 382q0 11.49-4.2 19.77a38.54 38.54 0 0 1-11.12 13.57 46.74 46.74 0 0 1-16.13 7.82 71.54 71.54 0 0 1-19.22 2.52l-39.29-.05.22-159.09 41.21.06a57.2 57.2 0 0 1 16.87 2.46 39.62 39.62 0 0 1 13.86 7.42 34.9 34.9 0 0 1 9.38 12.38 41.19 41.19 0 0 1 3.39 17.35 38.63 38.63 0 0 1-2.26 13.26 35 35 0 0 1-6.31 10.92 36 36 0 0 1-9.72 7.94 30.86 30.86 0 0 1-12.29 3.85 37.84 37.84 0 0 1 14.52 3.67 35.7 35.7 0 0 1 11.3 8.52 38.07 38.07 0 0 1 7.25 12.38 44.59 44.59 0 0 1 2.54 15.25zm-14.21-74.37a34 34 0 0 0-2.75-14.21 27.83 27.83 0 0 0-7.57-10 32.26 32.26 0 0 0-11.42-6 48.85 48.85 0 0 0-14.09-2h-30.1l-.09 63.64h30.1a46.32 46.32 0 0 0 13.56-2 33.57 33.57 0 0 0 11.43-5.93 29 29 0 0 0 10.92-23.55zm4.6 73.81a35.5 35.5 0 0 0-3.18-15.65 30.64 30.64 0 0 0-8.63-10.91 35.22 35.22 0 0 0-12.7-6.3 58.49 58.49 0 0 0-15.37-2h-30.75l-.1 70.26h29.89a56.41 56.41 0 0 0 15.48-2.07 38.79 38.79 0 0 0 13-6.37 30.59 30.59 0 0 0 9-11 35.76 35.76 0 0 0 3.37-15.93zM1350.76 398.79a33.72 33.72 0 0 1-21.38 23.6q-8.33 3.23-20.07 3.21-11.32 0-19.32-3.46a35.88 35.88 0 0 1-13.12-9.3 37.25 37.25 0 0 1-7.56-13.84 59.07 59.07 0 0 1-2.43-17.49v-20.28h9v19.85q0 35.82 33.26 35.87 17.08 0 25.75-9t8.69-31l.14-101.7-51-.07a26.41 26.41 0 0 0-9.18 1.29 11.19 11.19 0 0 0-5 3.34 10.19 10.19 0 0 0-2 4.74 33.59 33.59 0 0 0-.43 5.29l-7.47-3a30.38 30.38 0 0 1 1-7.76 15.19 15.19 0 0 1 3.53-6.48 17.57 17.57 0 0 1 6.73-4.41 29.46 29.46 0 0 1 10.58-1.61l63 .09-.16 113.29a70.7 70.7 0 0 1-2.56 18.83zM1407 425.46l.22-159 86.93-.1v8.83l-77.33.11-.09 66.47 61.92.09v8.39l-61.92-.09-.09 66.46 78.57.11v8.83zM1655.14 388.11a65.86 65.86 0 0 1-13.37 19.83 57.78 57.78 0 0 1-19.88 13.06 68.66 68.66 0 0 1-25.84 4.61q-16.86 0-29.88-6.49a66 66 0 0 1-22-17.35 75.52 75.52 0 0 1-13.52-25 95.73 95.73 0 0 1-4.55-29.78 99.81 99.81 0 0 1 4.74-30.84 76.76 76.76 0 0 1 13.91-25.64 67.17 67.17 0 0 1 22.66-17.6q13.47-6.52 31.19-6.51a72.24 72.24 0 0 1 21.88 3.52 69 69 0 0 1 19.96 10.08 58.9 58.9 0 0 1 14.93 15.87 42.4 42.4 0 0 1 6.59 20.92h-9.4a39.33 39.33 0 0 0-6.16-17.54 49.16 49.16 0 0 0-12.69-13.25 58.77 58.77 0 0 0-16.75-8.26 61.67 61.67 0 0 0-18.35-2.87q-15.38 0-27.13 6a58.27 58.27 0 0 0-19.67 16.13 72.23 72.23 0 0 0-12 23.11 89.9 89.9 0 0 0-4.09 26.93 89 89 0 0 0 3.81 26 68.27 68.27 0 0 0 11.5 22.51 58.21 58.21 0 0 0 18.87 15.76q11.2 5.93 25.93 5.95a57.62 57.62 0 0 0 22.42-4.09 51 51 0 0 0 16.89-11.28 55.54 55.54 0 0 0 11.34-17.09 85.76 85.76 0 0 0 6-21.74h9.4a90 90 0 0 1-6.74 25.05zM1755.9 275l-.2 150.64h-9.61l.2-150.64h-25.84a26.67 26.67 0 0 0-9.18 1.27 11.19 11.19 0 0 0-5 3.3 10 10 0 0 0-2 4.69 32.89 32.89 0 0 0-.43 5.23l-7.47-3a29.76 29.76 0 0 1 1-7.68 14.89 14.89 0 0 1 3.53-6.41 17.58 17.58 0 0 1 6.73-4.36 29.75 29.75 0 0 1 10.58-1.59l87.54.12v8.54z" transform="translate(-224.66 -159.43)"/><path class="cls-59" d="M736.5 257.51h105.26v8.57H736.5zM474.72 301.48h6.17l85.85-194.35h-6.14l-85.88 194.35z"/></g><text class="cls-60" transform="translate(737.5 333.83)" id="Calque_2" data-name="Calque 2">L<tspan class="cls-61" x="55.68" y="0">A</tspan><tspan x="111.44" y="0"> </tspan><tspan class="cls-62" x="158.72" y="0">F</tspan><tspan x="213.63" y="0">ABRIQUE DIGI</tspan><tspan class="cls-63" x="869.89" y="0">T</tspan><tspan x="921.19" y="0">ALE</tspan></text></svg>